ply
format ascii 1.0
Created by Blender3D 245 - www.blender.org, source file: <memory>
element vertex 56
property float x
property float y
property float z
property float nx
property float ny
property float nz
element face 15
property list uchar uint vertex_indices
end_header
16.268538 -12.787024 9.291013 -0.978224 0.139024 -0.154112 
17.106737 -12.593334 5.826799 -0.978224 0.139024 -0.154112 
16.284678 -14.947558 7.239560 -0.978224 0.139024 -0.154112 
16.225737 -14.892633 9.344750 -0.978224 0.139024 -0.154112 
19.153267 -12.579677 7.992014 0.942430 -0.254202 -0.217271 
18.331207 -14.933902 9.404776 0.942430 -0.254202 -0.217271 
18.096174 -14.719177 5.909965 0.942430 -0.254202 -0.217271 
18.138977 -12.613566 5.856227 0.942430 -0.254202 -0.217271 
16.268538 -12.787024 9.291013 -0.038088 0.998833 0.029700 
19.153267 -12.579677 7.992014 -0.038088 0.998833 0.029700 
18.138977 -12.613566 5.856227 -0.038088 0.998833 0.029700 
17.106737 -12.593334 5.826799 -0.038088 0.998833 0.029700 
17.106737 -12.593334 5.826799 -0.392610 -0.217691 -0.893570 
18.138977 -12.613566 5.856227 -0.392610 -0.217691 -0.893570 
18.096174 -14.719177 5.909965 -0.392610 -0.217691 -0.893570 
16.284678 -14.947558 7.239560 -0.392610 -0.217691 -0.893570 
16.284678 -14.947558 7.239560 0.038088 -0.998833 -0.029700 
18.096174 -14.719177 5.909965 0.038088 -0.998833 -0.029700 
18.331207 -14.933902 9.404776 0.038088 -0.998833 -0.029700 
16.225737 -14.892633 9.344750 0.038088 -0.998833 -0.029700 
19.153267 -12.579677 7.992014 0.224039 0.264949 0.937874 
16.268538 -12.787024 9.291013 0.224039 0.264949 0.937874 
16.225737 -14.892633 9.344750 0.224039 0.264949 0.937874 
18.331207 -14.933902 9.404776 0.224039 0.264949 0.937874 
17.421814 -13.410325 8.284551 0.027977 -0.026071 -0.999269 
17.554464 -13.890569 8.300795 0.027977 -0.026071 -0.999269 
17.402403 -14.365232 8.308921 0.027977 -0.026071 -0.999269 
17.269760 -13.884989 8.292678 0.027977 -0.026071 -0.999269 
17.421814 -13.410325 8.284551 0.963326 0.266992 0.026796 
17.175787 -13.390130 16.928047 0.963326 0.266992 0.026796 
17.251434 -13.664000 16.937309 0.963326 0.266992 0.026796 
17.554464 -13.890569 8.300795 0.963326 0.266992 0.026796 
17.554464 -13.890569 8.300795 0.951715 -0.304182 0.041373 
17.251434 -13.664000 16.937309 0.951715 -0.304182 0.041373 
17.164717 -13.934686 16.941944 0.951715 -0.304182 0.041373 
17.402403 -14.365232 8.308921 0.951715 -0.304182 0.041373 
17.402403 -14.365232 8.308921 -0.963711 -0.266618 -0.013236 
17.164717 -13.934686 16.941944 -0.963711 -0.266618 -0.013236 
17.089079 -13.660817 16.932680 -0.963711 -0.266618 -0.013236 
17.269760 -13.884989 8.292678 -0.963711 -0.266618 -0.013236 
17.175787 -13.390130 16.928047 -0.952101 0.304515 -0.027812 
17.421814 -13.410325 8.284551 -0.952101 0.304515 -0.027812 
17.269760 -13.884989 8.292678 -0.952101 0.304515 -0.027812 
17.089079 -13.660817 16.932680 -0.952101 0.304515 -0.027812 
17.089079 -13.660817 16.932680 -0.963643 -0.264982 0.034289 
17.164717 -13.934686 16.941944 -0.963643 -0.264982 0.034289 
17.130219 -13.625104 18.364832 -0.963643 -0.264982 0.034289 
17.164717 -13.934686 16.941944 0.949001 -0.302503 0.088825 
17.251434 -13.664000 16.937309 0.949001 -0.302503 0.088825 
17.130219 -13.625104 18.364832 0.949001 -0.302503 0.088825 
17.175787 -13.390130 16.928047 -0.952050 0.305304 0.019735 
17.089079 -13.660817 16.932680 -0.952050 0.305304 0.019735 
17.130219 -13.625104 18.364832 -0.952050 0.305304 0.019735 
17.251434 -13.664000 16.937309 0.960595 0.267844 0.074269 
17.175787 -13.390130 16.928047 0.960595 0.267844 0.074269 
17.130219 -13.625104 18.364832 0.960595 0.267844 0.074269 
4 0 1 2 3 
4 4 5 6 7 
4 8 9 10 11 
4 12 13 14 15 
4 16 17 18 19 
4 20 21 22 23 
4 24 25 26 27 
4 28 29 30 31 
4 32 33 34 35 
4 36 37 38 39 
4 40 41 42 43 
3 44 45 46 
3 47 48 49 
3 50 51 52 
3 53 54 55 
